<svg xmlns="http://www.w3.org/2000/svg" viewBox="0 0 512 640"><path d="M511.987 373.778H290.186L256 402.932l-34.201-29.153H.013v28.998c0 16.029 12.983 29.029 29.014 29.029h453.947c16.015 0 29.014-13 29.014-29.029v-28.999zm-404.26-97.277h-78.7C12.997 276.501.013 289.47.013 305.5s12.983 29.03 29.014 29.03h146.759l-68.059-58.029zm375.247 0h-78.715l-68.046 58.029h146.761c16.015 0 29.014-13 29.014-29.03s-13-28.999-29.014-28.999zM256.001 80.194C114.616 80.194.013 150.505.013 237.22h511.975c-.001-86.715-114.604-157.026-255.987-157.026zM141.928 276.501l114.073 97.277 114.071-97.277z"/><text y="527" font-size="5" font-weight="bold" font-family="'Helvetica Neue', Helvetica, Arial-Unicode, Arial, Sans-serif">Created by lastspark</text><text y="532" font-size="5" font-weight="bold" font-family="'Helvetica Neue', Helvetica, Arial-Unicode, Arial, Sans-serif">from the Noun Project</text></svg>